<svg width="45" height="45" viewBox="0 0 45 45" fill="none" xmlns="http://www.w3.org/2000/svg">
<path d="M16.2427 29.8225H12.5149V33.5503H16.2427V29.8225Z" fill="black"/>
<path d="M16.2427 19.4379H12.5149V23.1657H16.2427V19.4379Z" fill="black"/>
<path d="M22.5 0C34.9264 0 45 10.0736 45 22.5C45 34.9264 34.9264 45 22.5 45C10.0736 45 0 34.9264 0 22.5C0 10.0736 10.0736 0 22.5 0ZM22.5 4C12.2827 4 4 12.2827 4 22.5C4 32.7173 12.2827 41 22.5 41C32.7173 41 41 32.7173 41 22.5C41 12.2827 32.7173 4 22.5 4Z" fill="black"/>
<path d="M27.2197 10.5479C29.0926 10.5479 30.6805 10.8541 31.9834 11.4648C33.3066 12.0756 34.3147 12.9508 35.0068 14.0908C35.6989 15.2104 36.0449 16.5438 36.0449 18.0908V18.5801C36.0449 20.1273 35.699 21.4713 35.0068 22.6113C34.3146 23.731 33.3066 24.6062 31.9834 25.2373C30.6805 25.848 29.0926 26.1533 27.2197 26.1533H23.8604V32.9941H19.5234V10.5479H27.2197ZM23.8604 22.3975H27.5859C28.4612 22.3974 29.1938 22.2239 29.7842 21.8779C30.395 21.5318 30.8538 21.0532 31.1592 20.4424C31.4847 19.8318 31.6474 19.1296 31.6475 18.3359C31.6475 17.542 31.4848 16.8392 31.1592 16.2285C30.8538 15.6177 30.395 15.149 29.7842 14.8232C29.1939 14.4773 28.4611 14.3047 27.5859 14.3047H23.8604V22.3975Z" fill="black"/>
</svg>
